<svg width="191" height="341" viewBox="0 0 191 341" fill="none" xmlns="http://www.w3.org/2000/svg">
<path opacity="0.2" fill-rule="evenodd" clip-rule="evenodd" d="M38.1304 2.94704L152.146 26.0713L128.267 143.808L37.9356 162.129L35.4855 162.626L35.9824 165.076L39.7993 183.895L2.94703 176.421L38.1304 2.94704ZM40.3388 186.556L2.45011 178.871L-9.97544e-06 178.374L0.496913 175.924L35.6803 2.45012L36.1772 0L38.6273 0.496923L152.643 23.6212L155.093 24.1181L154.596 26.5682L130.928 143.268L151.951 139.004L154.402 138.508L154.899 140.958L190.082 314.432L190.579 316.882L188.129 317.379L74.1128 340.503L71.6627 341L71.1657 338.55L40.3388 186.556ZM130.388 145.929L152.448 141.455L187.632 314.929L73.6159 338.053L42.9992 187.095L116.466 201.995L118.916 202.492L119.413 200.042L130.388 145.929ZM127.728 146.468L116.963 199.545L42.4596 184.435L38.4325 164.579L127.728 146.468Z" fill="#E57200"/>
</svg>
